/<svg width="1635" height="957" viewBox="0 0 1635 957" fill="none" xmlns="http://www.w3.org/2000/svg">
<g clip-path="url(#clip0_150_2)">
<path d="M1239.95 155.391L1199.45 129.403C1196.23 127.335 1192.32 126.632 1188.57 127.449C1184.83 128.266 1181.57 130.535 1179.5 133.758C1177.43 136.981 1176.73 140.893 1177.55 144.634C1178.37 148.375 1180.63 151.638 1183.86 153.706L1195 160.852L1168.98 166.559C1165.19 154.617 1158.71 143.704 1150.04 134.661C1141.37 125.618 1130.74 118.687 1118.97 114.403C1107.2 110.118 1094.6 108.594 1082.14 109.949C1069.69 111.303 1057.71 115.5 1047.14 122.215C1036.56 128.93 1027.67 137.984 1021.14 148.68C1014.62 159.375 1010.64 171.425 1009.51 183.902C1008.38 196.379 1010.13 208.948 1014.63 220.642C1019.12 232.335 1026.24 242.84 1035.44 251.346L1029.54 260.54L1009.29 247.546C1006.07 245.478 1002.16 244.775 998.414 245.592C994.673 246.409 991.41 248.678 989.342 251.901C987.275 255.124 986.572 259.036 987.388 262.777C988.205 266.518 990.474 269.781 993.697 271.849L1013.95 284.843L1000.96 305.095C998.888 308.318 998.185 312.23 999.002 315.971C999.818 319.712 1002.09 322.975 1005.31 325.043C1008.53 327.111 1012.45 327.814 1016.19 326.997C1019.93 326.18 1023.19 323.911 1025.26 320.688L1038.25 300.436L1058.5 313.43C1061.73 315.498 1065.64 316.201 1069.38 315.384C1073.12 314.567 1076.38 312.298 1078.45 309.075C1080.52 305.852 1081.22 301.94 1080.41 298.199C1079.59 294.458 1077.32 291.195 1074.1 289.127L1053.85 276.133L1059.74 266.938C1071.86 271.976 1085.02 274.021 1098.1 272.9C1111.17 271.778 1123.79 267.524 1134.87 260.497C1145.96 253.469 1155.19 243.875 1161.78 232.527C1168.37 221.178 1172.14 208.408 1172.75 195.297L1201.17 189.112L1194.02 200.251C1191.95 203.473 1191.25 207.386 1192.06 211.127C1192.88 214.868 1195.15 218.131 1198.37 220.199C1201.6 222.266 1205.51 222.969 1209.25 222.152C1212.99 221.336 1216.25 219.066 1218.32 215.844L1244.31 175.339C1246.38 172.116 1247.08 168.204 1246.26 164.463C1245.45 160.722 1243.18 157.459 1239.95 155.391ZM1062.48 235.933C1053.67 230.279 1046.73 222.139 1042.55 212.542C1038.36 202.945 1037.12 192.322 1038.97 182.017C1040.82 171.712 1045.69 162.187 1052.95 154.648C1060.21 147.108 1069.55 141.892 1079.78 139.658C1090.01 137.425 1100.67 138.275 1110.42 142.102C1120.16 145.928 1128.56 152.558 1134.53 161.154C1140.51 169.75 1143.81 179.925 1144 190.394C1144.19 200.862 1141.28 211.153 1135.63 219.965C1128.03 231.769 1116.07 240.079 1102.36 243.073C1088.65 246.066 1074.31 243.499 1062.48 235.933Z" fill="#F3F3F3"/>
</g>
<g clip-path="url(#clip1_150_2)">
<path d="M622.101 867.435L769.041 784.459L785.636 813.847L638.696 896.823L622.101 867.435ZM803.327 765.097L818.021 756.8L834.616 786.188L819.922 794.485L803.327 765.097ZM778.837 778.927L793.531 770.629L810.126 800.017L795.432 808.315L778.837 778.927ZM741.416 693.212C744.115 683.806 743.191 673.476 738.046 664.365C727.812 646.243 704.82 639.847 686.698 650.08L694.996 664.774C704.792 659.243 717.71 662.671 723.352 672.663C728.994 682.655 725.259 695.488 715.463 701.02L723.761 715.714C745.704 703.322 773.068 711.513 785.459 733.456L797.795 755.301L812.489 747.004L800.098 725.061C787.817 703.313 764.657 691.586 741.416 693.212ZM727.454 733.008L712.466 741.471C702.67 747.003 688.923 742.105 683.28 732.113C677.638 722.121 681.926 710.268 691.722 704.736L683.425 690.042C674.721 694.957 668.326 703.128 665.647 712.758C662.968 722.387 664.225 732.687 669.139 741.39C674.054 750.094 682.225 756.488 691.855 759.167C701.485 761.846 711.784 760.59 720.488 755.675L735.475 747.212C745.761 741.403 758.867 743.563 766.114 756.396L773.305 769.131L787.999 760.833L778.927 744.768C768.914 727.037 745.773 722.663 727.454 733.008Z" fill="#F3F3F3"/>
</g>
<g clip-path="url(#clip2_150_2)">
<path d="M291.069 284.12L279.62 312.588L251.092 300.998L262.742 272.612L234.274 261.163L222.765 289.49L194.439 277.981L205.887 249.513L177.561 238.005L154.462 294.859L296.498 352.565L319.596 295.71L291.069 284.12ZM393.159 375.335L330.619 349.809L313.316 392.4L114.486 311.737L131.871 268.946L103.462 257.638L91.7531 285.883L63.486 274.516L98.1746 189.134L126.36 200.702L115.052 229.111L143.298 240.82L160.683 198.028L359.431 278.892L342.128 321.483L433.276 358.397L393.159 375.335Z" fill="#F3F3F3"/>
</g>
<path d="M1524.82 601.438C1510.7 587.312 1492.34 580.25 1475.39 580.25C1458.44 580.25 1438.66 587.312 1425.95 601.438L1344.02 680.538C1315.77 708.788 1315.77 752.575 1344.02 780.825C1372.27 809.075 1416.06 809.075 1444.31 780.825L1524.82 700.312C1551.66 673.475 1551.66 628.275 1524.82 601.438ZM1505.05 680.538L1465.5 720.087L1414.65 670.65L1352.5 732.8C1352.5 721.5 1355.32 708.788 1365.21 700.312L1445.72 619.8C1452.79 612.738 1464.09 608.5 1473.97 608.5C1483.86 608.5 1495.16 612.738 1503.64 619.8C1520.59 638.163 1520.59 663.588 1505.05 680.538ZM1572.85 652.287C1572.85 663.587 1570.02 673.475 1567.2 684.775C1581.32 701.725 1581.32 727.15 1565.79 742.688L1526.24 782.237L1505.05 761.05L1465.5 800.6C1447.14 818.963 1421.71 828.85 1397.7 828.85C1400.52 833.088 1403.35 837.325 1407.59 841.562C1435.84 869.812 1479.62 869.812 1507.87 841.562L1588.39 761.05C1616.64 732.8 1616.64 689.012 1588.39 660.762C1581.32 657.937 1577.09 655.112 1572.85 652.287Z" fill="#F3F3F3"/>
<defs>
<clipPath id="clip0_150_2">
<rect width="308" height="308" fill="white" transform="translate(1042.32) rotate(32.6847)"/>
</clipPath>
<clipPath id="clip1_150_2">
<rect width="270" height="270" fill="white" transform="translate(514 721.763) rotate(-29.4533)"/>
</clipPath>
<clipPath id="clip2_150_2">
<rect width="368" height="368" fill="white" transform="translate(143.134 532.157) rotate(-112.889)"/>
</clipPath>
</defs>
</svg>
