<svg width="101" height="101" viewBox="0 0 101 101" fill="none" xmlns="http://www.w3.org/2000/svg">
<path d="M68.175 14.7291C63.9667 10.5208 58.4958 8.41663 53.4458 8.41663C48.3958 8.41663 42.5042 10.5208 38.7167 14.7291L14.3083 38.2958C5.89168 46.7125 5.89168 59.7583 14.3083 68.175C22.725 76.5916 35.7709 76.5916 44.1875 68.175L68.175 44.1875C76.1709 36.1916 76.1709 22.725 68.175 14.7291ZM62.2834 38.2958L50.5 50.0791L35.35 35.35L16.8333 53.8666C16.8333 50.5 17.675 46.7125 20.6208 44.1875L44.6084 20.2C46.7125 18.0958 50.0792 16.8333 53.025 16.8333C55.9709 16.8333 59.3375 18.0958 61.8625 20.2C66.9125 25.6708 66.9125 33.2458 62.2834 38.2958ZM82.4834 29.8791C82.4834 33.2458 81.6417 36.1916 80.8 39.5583C85.0084 44.6083 85.0084 52.1833 80.3792 56.8125L68.5959 68.5958L62.2834 62.2833L50.5 74.0666C45.0292 79.5375 37.4542 82.4833 30.3 82.4833C31.1417 83.7458 31.9834 85.0083 33.2458 86.2708C41.6625 94.6875 54.7084 94.6875 63.125 86.2708L87.1125 62.2833C95.5292 53.8666 95.5292 40.8208 87.1125 32.4041C85.0084 31.5625 83.7459 30.7208 82.4834 29.8791Z" fill="white"/>
</svg>
