<svg width="1440" height="957" viewBox="0 0 1440 957" fill="none" xmlns="http://www.w3.org/2000/svg">
<g clip-path="url(#clip0_103_2)">
<path d="M1158.95 155.391L1118.45 129.403C1115.23 127.335 1111.32 126.632 1107.57 127.449C1103.83 128.266 1100.57 130.535 1098.5 133.758C1096.43 136.981 1095.73 140.893 1096.55 144.634C1097.37 148.375 1099.63 151.638 1102.86 153.706L1114 160.853L1087.98 166.559C1084.19 154.617 1077.71 143.704 1069.04 134.661C1060.37 125.618 1049.74 118.687 1037.97 114.403C1026.2 110.118 1013.6 108.594 1001.14 109.949C988.69 111.303 976.713 115.5 966.137 122.215C955.561 128.93 946.669 137.984 940.145 148.68C933.622 159.375 929.641 171.425 928.511 183.902C927.381 196.379 929.132 208.948 933.628 220.642C938.123 232.335 945.245 242.84 954.442 251.346L948.543 260.54L928.29 247.546C925.068 245.478 921.155 244.775 917.414 245.592C913.674 246.409 910.41 248.678 908.342 251.901C906.275 255.124 905.572 259.036 906.389 262.777C907.205 266.518 909.475 269.781 912.697 271.849L932.95 284.843L919.956 305.095C917.888 308.318 917.185 312.23 918.002 315.971C918.818 319.712 921.088 322.975 924.311 325.043C927.533 327.111 931.445 327.814 935.186 326.997C938.927 326.18 942.191 323.911 944.258 320.688L957.253 300.436L977.505 313.43C980.728 315.498 984.64 316.201 988.381 315.384C992.122 314.567 995.385 312.298 997.453 309.075C999.52 305.852 1000.22 301.94 999.407 298.199C998.59 294.458 996.321 291.195 993.098 289.127L972.845 276.133L978.745 266.939C990.865 271.976 1004.02 274.021 1017.1 272.9C1030.17 271.778 1042.79 267.524 1053.87 260.497C1064.96 253.469 1074.19 243.875 1080.78 232.527C1087.38 221.178 1091.14 208.408 1091.75 195.298L1120.17 189.112L1113.02 200.251C1110.95 203.474 1110.25 207.386 1111.06 211.127C1111.88 214.868 1114.15 218.131 1117.37 220.199C1120.6 222.266 1124.51 222.969 1128.25 222.153C1131.99 221.336 1135.25 219.066 1137.32 215.844L1163.31 175.339C1165.38 172.116 1166.08 168.204 1165.26 164.463C1164.45 160.722 1162.18 157.459 1158.95 155.391ZM981.485 235.933C972.672 230.279 965.735 222.139 961.549 212.542C957.363 202.945 956.117 192.322 957.968 182.017C959.82 171.712 964.685 162.188 971.95 154.648C979.214 147.108 988.551 141.892 998.781 139.658C1009.01 137.425 1019.67 138.276 1029.42 142.102C1039.16 145.928 1047.56 152.558 1053.53 161.154C1059.51 169.75 1062.81 179.925 1063 190.394C1063.19 200.862 1060.28 211.153 1054.63 219.965C1047.03 231.769 1035.07 240.079 1021.36 243.073C1007.65 246.066 993.306 243.499 981.485 235.933Z" fill="#F3F3F3"/>
</g>
<g clip-path="url(#clip1_103_2)">
<path d="M541.101 867.435L688.041 784.459L704.636 813.847L557.696 896.823L541.101 867.435ZM722.327 765.097L737.021 756.8L753.616 786.188L738.922 794.485L722.327 765.097ZM697.837 778.927L712.531 770.629L729.126 800.017L714.432 808.315L697.837 778.927ZM660.416 693.212C663.115 683.806 662.19 673.476 657.046 664.365C646.812 646.243 623.82 639.847 605.698 650.08L613.995 664.774C623.791 659.243 636.709 662.671 642.352 672.663C647.994 682.655 644.259 695.488 634.463 701.02L642.761 715.714C664.704 703.322 692.068 711.513 704.459 733.456L716.795 755.301L731.489 747.004L719.098 725.061C706.817 703.313 683.657 691.586 660.416 693.212ZM646.454 733.008L631.466 741.471C621.67 747.003 607.923 742.105 602.28 732.113C596.638 722.121 600.926 710.268 610.722 704.736L602.425 690.042C593.721 694.957 587.326 703.128 584.647 712.758C581.968 722.387 583.224 732.687 588.139 741.39C593.054 750.094 601.225 756.488 610.855 759.167C620.484 761.846 630.784 760.59 639.487 755.675L654.475 747.212C664.761 741.403 677.867 743.563 685.114 756.396L692.305 769.131L706.999 760.833L697.927 744.768C687.914 727.037 664.773 722.663 646.454 733.008Z" fill="#F3F3F3"/>
</g>
<g clip-path="url(#clip2_103_2)">
<path d="M210.069 284.12L198.62 312.588L170.092 300.998L181.742 272.612L153.274 261.163L141.765 289.49L113.439 277.981L124.887 249.513L96.5606 238.005L73.4621 294.859L215.498 352.565L238.596 295.71L210.069 284.12ZM312.159 375.335L249.619 349.809L232.316 392.4L33.4857 311.737L50.8708 268.946L22.4624 257.638L10.7531 285.883L-17.514 274.516L17.1746 189.134L45.36 200.702L34.0525 229.111L62.2976 240.82L79.6827 198.028L278.431 278.892L261.128 321.483L352.276 358.397L312.159 375.335Z" fill="#F3F3F3"/>
</g>
<path d="M1443.83 601.438C1429.7 587.312 1411.34 580.25 1394.39 580.25C1377.44 580.25 1357.66 587.312 1344.95 601.438L1263.03 680.538C1234.78 708.788 1234.78 752.575 1263.03 780.825C1291.28 809.075 1335.06 809.075 1363.31 780.825L1443.83 700.312C1470.66 673.475 1470.66 628.275 1443.83 601.438ZM1424.05 680.538L1384.5 720.087L1333.65 670.65L1271.5 732.8C1271.5 721.5 1274.33 708.788 1284.21 700.312L1364.73 619.8C1371.79 612.738 1383.09 608.5 1392.98 608.5C1402.86 608.5 1414.16 612.738 1422.64 619.8C1439.59 638.163 1439.59 663.588 1424.05 680.538ZM1491.85 652.287C1491.85 663.588 1489.03 673.475 1486.2 684.775C1500.33 701.725 1500.33 727.15 1484.79 742.688L1445.24 782.237L1424.05 761.05L1384.5 800.6C1366.14 818.963 1340.71 828.85 1316.7 828.85C1319.53 833.088 1322.35 837.325 1326.59 841.562C1354.84 869.812 1398.63 869.812 1426.88 841.562L1507.39 761.05C1535.64 732.8 1535.64 689.012 1507.39 660.762C1500.33 657.938 1496.09 655.112 1491.85 652.287Z" fill="#F3F3F3"/>
<defs>
<clipPath id="clip0_103_2">
<rect width="308" height="308" fill="white" transform="translate(961.325) rotate(32.6847)"/>
</clipPath>
<clipPath id="clip1_103_2">
<rect width="270" height="270" fill="white" transform="translate(433 721.763) rotate(-29.4533)"/>
</clipPath>
<clipPath id="clip2_103_2">
<rect width="368" height="368" fill="white" transform="translate(62.1343 532.157) rotate(-112.889)"/>
</clipPath>
</defs>
</svg>
